#!OML:ASF C:\ViconDB\ViconDB\414\Spring2016\041811\Spring2016.ASF
:FULLY-SPECIFIED
:DEGREES
170
root 11.0865 17.8105 18.8157 -14.4722 -86.3861 15.0365
lowerback 0.948956 -0.916981 -5.1267
upperback 0.192112 -1.28259 -0.417478
thorax -0.232152 -0.642248 2.45704
lowerneck 7.41468 -12.3432 -28.4023
upperneck 14.2526 -24.0556 28.3115
head 10.6088 -12.7817 12.3581
rclavicle 7.74018e-015 7.55382e-015
rhumerus -2.4174 -24.9568 -1.93245
rradius 67.6877
rwrist 17.5737
rhand -55.9179 -22.3971
rfingers 7.12502
rthumb -28.2578 -50.286
lclavicle 7.74018e-015 7.55382e-015
lhumerus -11.1661 9.71104 2.21336
lradius 44.294
lwrist 6.10871
lhand -45.116 36.6268
lfingers 7.12502
lthumb -17.8953 65.8234
rfemur 166.567 22.0144 -179.41
rtibia 31.6235
rfoot -2.49414 -45.0998
rtoes -29.7353
lfemur -11.8058 -8.84327 -11.1854
ltibia 38.1019
lfoot -30.8943 9.79572
ltoes -14.8995
171
root 11.0857 17.8115 18.8129 -13.9196 -86.373 14.4975
lowerback 0.920616 -0.924862 -5.14683
upperback 0.18245 -1.29161 -0.400241
thorax -0.224613 -0.646688 2.48566
lowerneck 7.37745 -12.3379 -28.4281
upperneck 14.3192 -24.0554 28.2967
head 10.6411 -12.7812 12.3572
rclavicle 1.60581e-014 7.15625e-015
rhumerus -2.40328 -24.9823 -1.95939
rradius 67.6846
rwrist 17.6042
rhand -55.9063 -22.1403
rfingers 7.12502
rthumb -28.2466 -50.0312
lclavicle 1.60581e-014 7.15625e-015
lhumerus -11.2468 9.65105 2.20335
lradius 44.3331
lwrist 6.05585
lhand -45.1084 36.4272
lfingers 7.12502
lthumb -17.888 65.6246
rfemur 166.565 22.0589 -179.366
rtibia 31.6395
rfoot -2.55775 -45.0993
rtoes -29.7955
lfemur -11.8132 -8.92502 -11.1533
ltibia 38.0886
lfoot -30.8914 9.87987
ltoes -14.998
172
root 11.0849 17.8119 18.8098 -12.9958 -86.3627 13.5906
lowerback 0.89131 -0.93185 -5.1642
upperback 0.174162 -1.29902 -0.360749
thorax -0.214773 -0.650315 2.53558
lowerneck 7.33219 -12.3545 -28.4488
upperneck 14.3729 -24.0656 28.2364
head 10.6647 -12.7826 12.3297
rclavicle 2.09966e-014 1.47101e-014
rhumerus -2.3813 -24.9892 -1.9699
rradius 67.6953
rwrist 17.629
rhand -55.9072 -22.3578
rfingers 7.12502
rthumb -28.2476 -50.2485
lclavicle 2.09966e-014 1.47101e-014
lhumerus -11.2368 9.65998 2.23188
lradius 44.3736
lwrist 6.10814
lhand -45.0624 36.786
lfingers 7.12502
lthumb -17.8437 65.9873
rfemur 166.578 22.0439 -179.294
rtibia 31.6417
rfoot -2.40924 -45.0894
rtoes -29.5229
lfemur -11.8235 -9.01806 -11.0869
ltibia 38.066
lfoot -30.9064 9.91929
ltoes -14.9643
173
root 11.0851 17.8112 18.8064 -14.3989 -86.3197 14.9764
lowerback 0.914132 -0.920613 -5.28741
upperback 0.163863 -1.2881 -0.425698
thorax -0.237889 -0.644387 2.5382
lowerneck 7.39682 -12.3454 -28.3805
upperneck 14.3481 -24.0686 28.2576
head 10.6379 -12.7874 12.3318
rclavicle 2.08351e-014 3.18055e-015
rhumerus -2.4598 -24.9907 -2.02428
rradius 67.7078
rwrist 17.6296
rhand -55.9305 -22.4103
rfingers 7.12502
rthumb -28.2698 -50.2973
lclavicle 2.08351e-014 3.18055e-015
lhumerus -11.1899 9.61213 2.184
lradius 44.4004
lwrist 6.0827
lhand -45.0258 36.6922
lfingers 7.12502
lthumb -17.8085 65.8968
rfemur 166.539 22.1534 -179.401
rtibia 31.6536
rfoot -2.53939 -45.1144
rtoes -29.6305
lfemur -11.7948 -9.05109 -11.1883
ltibia 38.0481
lfoot -30.8873 9.93544
ltoes -15.0777
174
root 11.0863 17.8104 18.8029 -13.0795 -86.3165 13.6346
lowerback 0.936307 -0.928317 -5.26232
upperback 0.169018 -1.29873 -0.382934
thorax -0.243683 -0.649477 2.56859
lowerneck 7.37473 -12.3392 -28.4486
upperneck 14.3609 -24.0645 28.2762
head 10.6593 -12.7873 12.3516
rclavicle -2.65253e-014 -1.51076e-014
rhumerus -2.41928 -25.0364 -2.0674
rradius 67.722
rwrist 17.6267
rhand -55.9072 -22.3517
rfingers 7.12502
rthumb -28.2475 -50.2424
lclavicle -2.65253e-014 -1.51076e-014
lhumerus -11.2285 9.62525 2.18556
lradius 44.3921
lwrist 6.00947
lhand -44.973 36.6367
lfingers 7.12502
lthumb -17.7577 65.8459
rfemur 166.504 21.9662 -179.323
rtibia 31.6531
rfoot -2.31949 -45.0842
rtoes -29.8148
lfemur -11.784 -9.08421 -11.0905
ltibia 38.0358
lfoot -30.8597 10.0018
ltoes -15.1643
175
root 11.0846 17.8111 18.8017 -12.7611 -86.3025 13.3052
lowerback 0.923284 -0.925705 -5.27117
upperback 0.161062 -1.29479 -0.384475
thorax -0.244731 -0.647329 2.57177
lowerneck 7.42936 -12.3283 -28.4507
upperneck 14.3411 -24.0625 28.2902
head 10.6438 -12.7918 12.3626
rclavicle 1.54928e-014 0
rhumerus -2.41975 -25.0268 -2.08016
rradius 67.6714
rwrist 17.6381
rhand -55.9119 -22.3554
rfingers 7.12502
rthumb -28.252 -50.2453
lclavicle 1.54928e-014 0
lhumerus -11.2378 9.60115 2.17517
lradius 44.4076
lwrist 6.02368
lhand -44.9615 36.434
lfingers 7.12502
lthumb -17.7466 65.6442
rfemur 166.48 22.0902 -179.306
rtibia 31.6445
rfoot -2.44506 -45.0944
rtoes -29.9051
lfemur -11.7524 -9.17828 -11.0789
ltibia 38.0335
lfoot -30.9261 10.0195
ltoes -15.0263
176
root 11.0839 17.8119 18.7999 -10.5514 -86.3238 11.0978
lowerback 0.892648 -0.914555 -5.1254
upperback 0.156719 -1.2765 -0.389017
thorax -0.236819 -0.63828 2.48488
lowerneck 7.41245 -12.3505 -28.3588
upperneck 14.4026 -24.0937 28.2385
head 10.6567 -12.8015 12.3186
rclavicle 6.98852e-015 -4.77083e-015
rhumerus -2.47819 -25.0581 -2.13092
rradius 67.6434
rwrist 17.6882
rhand -55.9077 -22.3985
rfingers 7.12502
rthumb -28.248 -50.2891
lclavicle 6.98852e-015 -4.77083e-015
lhumerus -11.1847 9.52883 2.11685
lradius 44.4686
lwrist 6.07036
lhand -44.967 36.5537
lfingers 7.12502
lthumb -17.7519 65.7634
rfemur 166.499 22.091 -179.134
rtibia 31.6234
rfoot -2.50303 -45.0754
rtoes -29.8279
lfemur -11.7687 -9.20466 -10.918
ltibia 38.0361
lfoot -30.892 10.0537
ltoes -15.0271
177
root 11.0827 17.8131 18.7974 -10.013 -86.2966 10.5502
lowerback 0.876588 -0.913107 -5.13825
upperback 0.155331 -1.27373 -0.387163
thorax -0.229139 -0.637045 2.49367
lowerneck 7.45563 -12.3456 -28.3552
upperneck 14.3902 -24.0989 28.2506
head 10.6475 -12.808 12.3253
rclavicle 6.33005e-015 9.14409e-015
rhumerus -2.46367 -25.0962 -2.14807
rradius 67.56
rwrist 17.7941
rhand -55.8843 -22.3281
rfingers 7.12502
rthumb -28.2256 -50.2224
lclavicle 6.33005e-015 9.14409e-015
lhumerus -11.1829 9.49222 2.10096
lradius 44.4858
lwrist 6.042
lhand -44.9077 36.3403
lfingers 7.12502
lthumb -17.6948 65.5552
rfemur 166.478 22.022 -179.102
rtibia 31.6163
rfoot -2.32144 -45.0294
rtoes -29.7003
lfemur -11.7525 -9.26756 -10.8797
ltibia 38.0351
lfoot -30.9058 10.0562
ltoes -15.1203
178
root 11.0833 17.8143 18.7951 -9.35423 -86.3081 9.89158
lowerback 0.897796 -0.905972 -5.16622
upperback 0.128918 -1.2661 -0.343325
thorax -0.267207 -0.631626 2.55506
lowerneck 7.44964 -12.3289 -28.4284
upperneck 14.4338 -24.0841 28.2381
head 10.668 -12.8051 12.3382
rclavicle -1.22004e-014 -9.14409e-015
rhumerus -2.42372 -25.0804 -2.12221
rradius 67.5153
rwrist 17.8461
rhand -55.8571 -22.1529
rfingers 7.12502
rthumb -28.1997 -50.0515
lclavicle -1.22004e-014 -9.14409e-015
lhumerus -11.2304 9.45423 2.13402
lradius 44.5161
lwrist 6.08406
lhand -44.9097 36.3503
lfingers 7.12502
lthumb -17.6967 65.565
rfemur 166.49 22.0095 -179.046
rtibia 31.6092
rfoot -2.32992 -45.0167
rtoes -29.6697
lfemur -11.7519 -9.28628 -10.8254
ltibia 38.032
lfoot -30.935 10.0743
ltoes -15.0485
179
root 11.0852 17.8117 18.7935 -10.8682 -86.2854 11.4052
lowerback 0.891941 -0.898032 -5.27292
upperback 0.135587 -1.2569 -0.397252
thorax -0.256775 -0.627641 2.55905
lowerneck 7.41496 -12.3591 -28.3398
upperneck 14.453 -24.1054 28.183
head 10.6654 -12.8067 12.2906
rclavicle -4.61553e-015 -2.78299e-015
rhumerus -2.43763 -25.1159 -2.15569
rradius 67.4842
rwrist 17.8798
rhand -55.8183 -22.1318
rfingers 7.12502
rthumb -28.1626 -50.0365
lclavicle -4.61553e-015 -2.78299e-015
lhumerus -11.1944 9.43936 2.10891
lradius 44.5347
lwrist 6.15205
lhand -44.9554 36.2566
lfingers 7.12502
lthumb -17.7407 65.4673
rfemur 166.486 22.1805 -179.154
rtibia 31.6091
rfoot -2.52291 -45.0647
rtoes -29.8073
lfemur -11.7584 -9.32413 -10.9445
ltibia 38.0264
lfoot -30.9331 10.1591
ltoes -15.0756
180
root 11.085 17.8132 18.7932 -8.67067 -86.2827 9.21507
lowerback 0.865468 -0.900246 -5.13876
upperback 0.122911 -1.2567 -0.372084
thorax -0.257271 -0.627167 2.50951
lowerneck 7.45202 -12.3426 -28.3485
upperneck 14.4483 -24.0985 28.2084
head 10.6602 -12.8084 12.3088
rclavicle 1.85926e-014 2.74323e-014
rhumerus -2.46079 -25.1083 -2.1658
rradius 67.4638
rwrist 17.8946
rhand -55.7603 -21.9414
rfingers 7.12502
rthumb -28.1072 -49.8552
lclavicle 1.85926e-014 2.74323e-014
lhumerus -11.1784 9.41681 2.09883
lradius 44.5547
lwrist 6.16255
lhand -44.9823 36.4492
lfingers 7.12502
lthumb -17.7666 65.6576
rfemur 166.494 22.166 -178.988
rtibia 31.6098
rfoot -2.54795 -45.0507
rtoes -30.0211
lfemur -11.7774 -9.34832 -10.7832
ltibia 38.0254
lfoot -30.9186 10.1522
ltoes -15.1463
